<svg width="28" height="28" viewBox="0 0 28 28" fill="none" xmlns="http://www.w3.org/2000/svg">
<path d="M4.30146 13.1518C4.19008 13.0466 4.05906 12.9643 3.91588 12.9097C3.77269 12.8551 3.62015 12.8292 3.46697 12.8335C3.31378 12.8379 3.16295 12.8723 3.02308 12.9349C2.88322 12.9976 2.75705 13.0871 2.6518 13.1985C2.54654 13.3099 2.46426 13.4409 2.40964 13.5841C2.35502 13.7273 2.32914 13.8798 2.33347 14.033C2.33781 14.1862 2.37227 14.337 2.4349 14.4769C2.49752 14.6168 2.58708 14.7429 2.69847 14.8482L13.1985 24.7648C13.4151 24.9696 13.7019 25.0837 14 25.0837C14.2981 25.0837 14.5849 24.9696 14.8015 24.7648L25.3026 14.8482C25.4165 14.7436 25.5084 14.6175 25.573 14.4771C25.6377 14.3367 25.6738 14.1849 25.6793 14.0304C25.6848 13.876 25.6595 13.722 25.605 13.5773C25.5505 13.4327 25.4677 13.3004 25.3616 13.188C25.2555 13.0756 25.1281 12.9855 24.9869 12.9227C24.8456 12.86 24.6933 12.826 24.5388 12.8226C24.3843 12.8192 24.2306 12.8466 24.0867 12.9031C23.9429 12.9597 23.8117 13.0442 23.7008 13.1518L14 22.3125L4.30146 13.1518Z" fill="white"/>
</svg>
