<svg width="43" height="38" viewBox="0 0 43 38" fill="none" xmlns="http://www.w3.org/2000/svg">
<path d="M38.9688 35.2857H4.03125C1.80063 35.2857 0 33.4671 0 31.2142V6.78566C0 4.5328 1.80063 2.71423 4.03125 2.71423H38.9688C41.1994 2.71423 43 4.5328 43 6.78566V31.2142C43 33.4671 41.1994 35.2857 38.9688 35.2857ZM4.03125 5.42852C3.27875 5.42852 2.6875 6.02566 2.6875 6.78566V31.2142C2.6875 31.9742 3.27875 32.5714 4.03125 32.5714H38.9688C39.7212 32.5714 40.3125 31.9742 40.3125 31.2142V6.78566C40.3125 6.02566 39.7212 5.42852 38.9688 5.42852H4.03125Z" fill="black"/>
<path d="M21.5002 24.32C19.6189 24.32 17.8989 23.56 16.6089 22.1757L2.49957 7.02997C1.98894 6.48712 2.01582 5.61854 2.55332 5.10283C3.09082 4.58712 3.95082 4.61426 4.46144 5.15712L18.5708 20.3028C20.1027 21.9585 22.8977 21.9585 24.4296 20.3028L38.5389 5.18426C39.0496 4.6414 39.9096 4.61426 40.4471 5.12997C40.9846 5.64569 41.0114 6.51426 40.5008 7.05712L26.3914 22.2028C25.1014 23.5871 23.3814 24.3471 21.5002 24.3471V24.32Z" fill="black"/>
</svg>
