<svg width="55" height="55" viewBox="0 0 55 55" fill="none" xmlns="http://www.w3.org/2000/svg">
<path d="M47.7748 34.0441L37.6535 29.5088L37.6256 29.4959C37.1002 29.2712 36.527 29.181 35.9579 29.2335C35.3889 29.286 34.8419 29.4796 34.3664 29.7967C34.3104 29.8336 34.2566 29.8738 34.2053 29.917L28.976 34.375C25.6631 32.7658 22.2428 29.3713 20.6336 26.1014L25.0981 20.7926C25.141 20.7389 25.1819 20.6851 25.2205 20.6271C25.5308 20.153 25.7191 19.6095 25.7686 19.045C25.818 18.4805 25.7272 17.9125 25.5041 17.3916V17.3658L20.9559 7.22734C20.661 6.54685 20.1539 5.97999 19.5104 5.61136C18.8668 5.24274 18.1213 5.09214 17.3852 5.18202C14.474 5.5651 11.8018 6.99481 9.86765 9.2041C7.93353 11.4134 6.86976 14.2512 6.87502 17.1875C6.87502 34.2461 20.7539 48.125 37.8125 48.125C40.7488 48.1303 43.5866 47.0665 45.7959 45.1324C48.0052 43.1982 49.4349 40.526 49.818 37.6148C49.908 36.8789 49.7577 36.1336 49.3895 35.4901C49.0213 34.8466 48.4549 34.3394 47.7748 34.0441ZM37.8125 44.6875C30.5215 44.6795 23.5314 41.7797 18.3759 36.6241C13.2204 31.4686 10.3205 24.4785 10.3125 17.1875C10.3044 15.0895 11.0603 13.0603 12.4389 11.4789C13.8175 9.89745 15.7247 8.87189 17.8041 8.59374C17.8033 8.60231 17.8033 8.61095 17.8041 8.61952L22.3158 18.7172L17.875 24.0324C17.8299 24.0843 17.789 24.1396 17.7526 24.1978C17.4293 24.694 17.2396 25.2652 17.2019 25.8561C17.1643 26.4471 17.28 27.0378 17.5377 27.5709C19.4842 31.5519 23.4953 35.533 27.5194 37.4773C28.0564 37.7327 28.6505 37.8443 29.2436 37.8014C29.8367 37.7585 30.4085 37.5624 30.9031 37.2324C30.9583 37.1953 31.0114 37.1551 31.0621 37.1121L36.285 32.6562L46.3826 37.1787H46.4063C46.1315 39.2611 45.1075 41.1721 43.5258 42.5541C41.944 43.9361 39.913 44.6946 37.8125 44.6875Z" fill="black"/>
</svg>
