<svg width="49" height="49" viewBox="0 0 49 49" fill="none" xmlns="http://www.w3.org/2000/svg">
<path d="M45.3401 5.01294C45.1028 4.80808 44.8142 4.67183 44.5052 4.61888C44.1963 4.56592 43.8787 4.59827 43.5868 4.71244L4.79641 19.8929C4.24666 20.1066 3.78123 20.4932 3.4702 20.9944C3.15917 21.4956 3.01936 22.0842 3.07183 22.6717C3.1243 23.2592 3.3662 23.8138 3.76112 24.2519C4.15604 24.6901 4.6826 24.9881 5.26152 25.101L15.3123 27.0744V38.2813C15.3103 38.8917 15.4917 39.4886 15.833 39.9948C16.1742 40.5009 16.6597 40.8928 17.2263 41.1198C17.7921 41.3509 18.4143 41.4063 19.012 41.279C19.6098 41.1517 20.1553 40.8474 20.5779 40.4059L25.4243 35.3795L33.113 42.1094C33.6678 42.6014 34.3832 42.8737 35.1247 42.875C35.4497 42.8748 35.7726 42.8237 36.0818 42.7238C36.587 42.5635 37.0414 42.2736 37.3997 41.8831C37.758 41.4925 38.0078 41.0149 38.1241 40.4977L45.8932 6.69923C45.9627 6.39442 45.948 6.07644 45.8505 5.77937C45.7531 5.48231 45.5766 5.21737 45.3401 5.01294ZM33.6375 11.9036L16.4894 24.1842L6.99566 22.3218L33.6375 11.9036ZM18.3748 38.2813V29.1933L23.1197 33.3545L18.3748 38.2813ZM35.1286 39.8125L19.3031 25.9356L42.0804 9.61052L35.1286 39.8125Z" fill="black"/>
</svg>
